<mxfile host="app.diagrams.net" modified="2024-04-12T14:56:25.339Z" agent="Mozilla/5.0 (Windows NT 10.0; Win64; x64) AppleWebKit/537.36 (KHTML, like Gecko) Chrome/114.0.0.0 Safari/537.36" etag="O7AwMWuR1yfp1XoF2ZXE" version="24.2.3" type="github">
  <diagram id="C5RBs43oDa-KdzZeNtuy" name="Page-1">
    <mxGraphModel dx="1434" dy="796" grid="1" gridSize="10" guides="1" tooltips="1" connect="1" arrows="1" fold="1" page="1" pageScale="1" pageWidth="1169" pageHeight="827" math="0" shadow="0">
      <root>
        <mxCell id="WIyWlLk6GJQsqaUBKTNV-0" />
        <mxCell id="WIyWlLk6GJQsqaUBKTNV-1" parent="WIyWlLk6GJQsqaUBKTNV-0" />
        <mxCell id="eLkduHtTqUdEUResqgia-2" value="1" style="edgeStyle=orthogonalEdgeStyle;rounded=0;orthogonalLoop=1;jettySize=auto;html=1;endArrow=none;endFill=0;labelPosition=left;verticalLabelPosition=top;align=right;verticalAlign=bottom;" edge="1" parent="WIyWlLk6GJQsqaUBKTNV-1" source="eLkduHtTqUdEUResqgia-0" target="eLkduHtTqUdEUResqgia-1">
          <mxGeometry relative="1" as="geometry" />
        </mxCell>
        <mxCell id="eLkduHtTqUdEUResqgia-0" value="Hospital Unimed Litoral Itajaí" style="rounded=0;whiteSpace=wrap;html=1;" vertex="1" parent="WIyWlLk6GJQsqaUBKTNV-1">
          <mxGeometry x="110" y="50" width="90" height="50" as="geometry" />
        </mxCell>
        <mxCell id="eLkduHtTqUdEUResqgia-1" value="Possui" style="rhombus;whiteSpace=wrap;html=1;" vertex="1" parent="WIyWlLk6GJQsqaUBKTNV-1">
          <mxGeometry x="260" y="55" width="80" height="40" as="geometry" />
        </mxCell>
        <mxCell id="eLkduHtTqUdEUResqgia-4" value="n" style="edgeStyle=orthogonalEdgeStyle;rounded=0;orthogonalLoop=1;jettySize=auto;html=1;endArrow=none;endFill=0;labelPosition=right;verticalLabelPosition=top;align=left;verticalAlign=bottom;" edge="1" parent="WIyWlLk6GJQsqaUBKTNV-1" source="eLkduHtTqUdEUResqgia-3" target="eLkduHtTqUdEUResqgia-1">
          <mxGeometry relative="1" as="geometry" />
        </mxCell>
        <mxCell id="eLkduHtTqUdEUResqgia-6" style="edgeStyle=orthogonalEdgeStyle;rounded=0;orthogonalLoop=1;jettySize=auto;html=1;entryX=1;entryY=0.5;entryDx=0;entryDy=0;endArrow=none;endFill=0;" edge="1" parent="WIyWlLk6GJQsqaUBKTNV-1" source="eLkduHtTqUdEUResqgia-3" target="eLkduHtTqUdEUResqgia-5">
          <mxGeometry relative="1" as="geometry" />
        </mxCell>
        <mxCell id="eLkduHtTqUdEUResqgia-19" value="1" style="edgeStyle=orthogonalEdgeStyle;rounded=0;orthogonalLoop=1;jettySize=auto;html=1;endArrow=none;endFill=0;labelPosition=right;verticalLabelPosition=top;align=left;verticalAlign=bottom;" edge="1" parent="WIyWlLk6GJQsqaUBKTNV-1" source="eLkduHtTqUdEUResqgia-3" target="eLkduHtTqUdEUResqgia-17">
          <mxGeometry relative="1" as="geometry">
            <mxPoint as="offset" />
          </mxGeometry>
        </mxCell>
        <mxCell id="eLkduHtTqUdEUResqgia-3" value="Setor" style="rounded=0;whiteSpace=wrap;html=1;" vertex="1" parent="WIyWlLk6GJQsqaUBKTNV-1">
          <mxGeometry x="390" y="50" width="90" height="50" as="geometry" />
        </mxCell>
        <mxCell id="eLkduHtTqUdEUResqgia-7" style="edgeStyle=orthogonalEdgeStyle;rounded=0;orthogonalLoop=1;jettySize=auto;html=1;exitX=0;exitY=0.25;exitDx=0;exitDy=0;entryX=0.5;entryY=0;entryDx=0;entryDy=0;endArrow=none;endFill=0;" edge="1" parent="WIyWlLk6GJQsqaUBKTNV-1" source="eLkduHtTqUdEUResqgia-5" target="eLkduHtTqUdEUResqgia-11">
          <mxGeometry relative="1" as="geometry">
            <mxPoint x="660" y="260" as="targetPoint" />
          </mxGeometry>
        </mxCell>
        <mxCell id="eLkduHtTqUdEUResqgia-9" style="edgeStyle=orthogonalEdgeStyle;rounded=0;orthogonalLoop=1;jettySize=auto;html=1;exitX=0;exitY=0.75;exitDx=0;exitDy=0;entryX=0.5;entryY=0;entryDx=0;entryDy=0;endArrow=none;endFill=0;" edge="1" parent="WIyWlLk6GJQsqaUBKTNV-1" source="eLkduHtTqUdEUResqgia-5" target="eLkduHtTqUdEUResqgia-12">
          <mxGeometry relative="1" as="geometry">
            <mxPoint x="700" y="260" as="targetPoint" />
          </mxGeometry>
        </mxCell>
        <mxCell id="eLkduHtTqUdEUResqgia-14" style="edgeStyle=orthogonalEdgeStyle;rounded=0;orthogonalLoop=1;jettySize=auto;html=1;exitX=0.5;exitY=1;exitDx=0;exitDy=0;entryX=0.5;entryY=0;entryDx=0;entryDy=0;endArrow=none;endFill=0;" edge="1" parent="WIyWlLk6GJQsqaUBKTNV-1" source="eLkduHtTqUdEUResqgia-5" target="eLkduHtTqUdEUResqgia-13">
          <mxGeometry relative="1" as="geometry">
            <mxPoint x="780" y="240" as="targetPoint" />
          </mxGeometry>
        </mxCell>
        <mxCell id="eLkduHtTqUdEUResqgia-15" style="edgeStyle=orthogonalEdgeStyle;rounded=0;orthogonalLoop=1;jettySize=auto;html=1;exitX=0.5;exitY=0;exitDx=0;exitDy=0;entryX=0.5;entryY=0;entryDx=0;entryDy=0;endArrow=none;endFill=0;" edge="1" parent="WIyWlLk6GJQsqaUBKTNV-1" source="eLkduHtTqUdEUResqgia-5" target="eLkduHtTqUdEUResqgia-10">
          <mxGeometry relative="1" as="geometry" />
        </mxCell>
        <mxCell id="eLkduHtTqUdEUResqgia-5" value="" style="triangle;whiteSpace=wrap;html=1;rotation=-90;" vertex="1" parent="WIyWlLk6GJQsqaUBKTNV-1">
          <mxGeometry x="810" y="95" width="60" height="80" as="geometry" />
        </mxCell>
        <mxCell id="eLkduHtTqUdEUResqgia-10" value="Pronto Atendimento" style="rounded=0;whiteSpace=wrap;html=1;" vertex="1" parent="WIyWlLk6GJQsqaUBKTNV-1">
          <mxGeometry x="580" y="284" width="90" height="50" as="geometry" />
        </mxCell>
        <mxCell id="eLkduHtTqUdEUResqgia-11" value="Almoxarifado" style="rounded=0;whiteSpace=wrap;html=1;" vertex="1" parent="WIyWlLk6GJQsqaUBKTNV-1">
          <mxGeometry x="720" y="284" width="90" height="50" as="geometry" />
        </mxCell>
        <mxCell id="eLkduHtTqUdEUResqgia-12" value="Farmácia" style="rounded=0;whiteSpace=wrap;html=1;" vertex="1" parent="WIyWlLk6GJQsqaUBKTNV-1">
          <mxGeometry x="870" y="284" width="90" height="50" as="geometry" />
        </mxCell>
        <mxCell id="eLkduHtTqUdEUResqgia-13" value="CDI" style="rounded=0;whiteSpace=wrap;html=1;" vertex="1" parent="WIyWlLk6GJQsqaUBKTNV-1">
          <mxGeometry x="1010" y="284" width="90" height="50" as="geometry" />
        </mxCell>
        <mxCell id="eLkduHtTqUdEUResqgia-18" value="n" style="edgeStyle=orthogonalEdgeStyle;rounded=0;orthogonalLoop=1;jettySize=auto;html=1;endArrow=none;endFill=0;labelPosition=right;verticalLabelPosition=bottom;align=left;verticalAlign=top;" edge="1" parent="WIyWlLk6GJQsqaUBKTNV-1" source="eLkduHtTqUdEUResqgia-16" target="eLkduHtTqUdEUResqgia-17">
          <mxGeometry relative="1" as="geometry" />
        </mxCell>
        <mxCell id="eLkduHtTqUdEUResqgia-16" value="Perfil" style="rounded=0;whiteSpace=wrap;html=1;" vertex="1" parent="WIyWlLk6GJQsqaUBKTNV-1">
          <mxGeometry x="390" y="234" width="90" height="50" as="geometry" />
        </mxCell>
        <mxCell id="eLkduHtTqUdEUResqgia-17" value="Pertence" style="rhombus;whiteSpace=wrap;html=1;" vertex="1" parent="WIyWlLk6GJQsqaUBKTNV-1">
          <mxGeometry x="395" y="150" width="80" height="40" as="geometry" />
        </mxCell>
        <mxCell id="eLkduHtTqUdEUResqgia-21" value="n" style="edgeStyle=orthogonalEdgeStyle;rounded=0;orthogonalLoop=1;jettySize=auto;html=1;endArrow=none;endFill=0;labelPosition=right;verticalLabelPosition=top;align=left;verticalAlign=bottom;exitX=0.5;exitY=1;exitDx=0;exitDy=0;" edge="1" parent="WIyWlLk6GJQsqaUBKTNV-1" target="eLkduHtTqUdEUResqgia-22" source="eLkduHtTqUdEUResqgia-16">
          <mxGeometry relative="1" as="geometry">
            <mxPoint x="485" y="-105" as="sourcePoint" />
          </mxGeometry>
        </mxCell>
        <mxCell id="eLkduHtTqUdEUResqgia-22" value="Contém" style="rhombus;whiteSpace=wrap;html=1;" vertex="1" parent="WIyWlLk6GJQsqaUBKTNV-1">
          <mxGeometry x="395" y="334" width="80" height="40" as="geometry" />
        </mxCell>
        <mxCell id="eLkduHtTqUdEUResqgia-23" value="n" style="edgeStyle=orthogonalEdgeStyle;rounded=0;orthogonalLoop=1;jettySize=auto;html=1;endArrow=none;endFill=0;labelPosition=right;verticalLabelPosition=bottom;align=left;verticalAlign=top;exitX=0.5;exitY=0;exitDx=0;exitDy=0;" edge="1" parent="WIyWlLk6GJQsqaUBKTNV-1" target="eLkduHtTqUdEUResqgia-22" source="eLkduHtTqUdEUResqgia-24">
          <mxGeometry relative="1" as="geometry">
            <mxPoint x="675" y="-121" as="sourcePoint" />
          </mxGeometry>
        </mxCell>
        <mxCell id="eLkduHtTqUdEUResqgia-24" value="Função" style="rounded=0;whiteSpace=wrap;html=1;" vertex="1" parent="WIyWlLk6GJQsqaUBKTNV-1">
          <mxGeometry x="390" y="414" width="90" height="50" as="geometry" />
        </mxCell>
        <mxCell id="eLkduHtTqUdEUResqgia-25" value="" style="shape=curlyBracket;whiteSpace=wrap;html=1;rounded=1;flipH=1;labelPosition=right;verticalLabelPosition=middle;align=left;verticalAlign=middle;rotation=-180;" vertex="1" parent="WIyWlLk6GJQsqaUBKTNV-1">
          <mxGeometry x="480" y="412" width="20" height="52" as="geometry" />
        </mxCell>
        <mxCell id="eLkduHtTqUdEUResqgia-27" value="Parâmetros" style="text;strokeColor=none;align=center;fillColor=none;html=1;verticalAlign=middle;whiteSpace=wrap;rounded=0;" vertex="1" parent="WIyWlLk6GJQsqaUBKTNV-1">
          <mxGeometry x="500" y="414" width="60" height="30" as="geometry" />
        </mxCell>
        <mxCell id="eLkduHtTqUdEUResqgia-28" value="Regras" style="text;html=1;align=center;verticalAlign=middle;resizable=0;points=[];autosize=1;strokeColor=none;fillColor=none;" vertex="1" parent="WIyWlLk6GJQsqaUBKTNV-1">
          <mxGeometry x="490" y="434" width="60" height="30" as="geometry" />
        </mxCell>
      </root>
    </mxGraphModel>
  </diagram>
</mxfile>
